# xmcd
# 
# Track frame offsets:
#     187
#     24690
#     65037
#     91725
#     115597
#     154220
# 
# Disc length: 2539
# 
# Revision: 1
# Processed by: cddbd v1.5.2PL0 Copyright (c) Steve Scherf et al.
# Submitted via: BonkEnc v1.0.8
# 
DISCID=4509e906
DTITLE=Various Artist - Five Birds And A Monk
DYEAR=1978
DGENRE=Jazz
TTITLE0=[Johnny Griffin] Billie's Bounce
TTITLE1=[John Klemmer] 'Round Midnight
TTITLE2=[Joe Farrell] Confirmation
TTITLE3=[Art Pepper] Yardbird Suite
TTITLE4=[Joe Henderson] Relaxin' At Camarillo
TTITLE5=[Harold Land] Bloomdido
EXTD=YEAR: 1978
EXTT0=
EXTT1=
EXTT2=
EXTT3=
EXTT4=
EXTT5=
PLAYORDER=
